<svg width="48" height="48" viewBox="0 0 48 48" fill="none" xmlns="http://www.w3.org/2000/svg">
<path fill-rule="evenodd" clip-rule="evenodd" d="M34.4905 17.366L24.5001 11.5981C24.1907 11.4195 23.8095 11.4195 23.5001 11.5981L13.5098 17.366C13.2004 17.5447 13.0098 17.8748 13.0098 18.2321V29.768C13.0098 30.1252 13.2004 30.4554 13.5098 30.634L23.5001 36.4019C23.8095 36.5806 24.1907 36.5806 24.5001 36.4019L34.4905 30.634C34.7999 30.4554 34.9905 30.1252 34.9905 29.768V18.2321C34.9905 17.8748 34.7999 17.5447 34.4905 17.366ZM25.5001 9.86604C24.5719 9.33014 23.4284 9.33014 22.5001 9.86604L12.5098 15.634C11.5816 16.1699 11.0098 17.1603 11.0098 18.2321V29.768C11.0098 30.8398 11.5816 31.8301 12.5098 32.366L22.5001 38.134C23.4284 38.6699 24.5719 38.6699 25.5001 38.134L35.4905 32.366C36.4187 31.8301 36.9905 30.8398 36.9905 29.768V18.2321C36.9905 17.1603 36.4187 16.1699 35.4905 15.634L25.5001 9.86604Z" fill="#0077FA"/>
<path fill-rule="evenodd" clip-rule="evenodd" d="M24.9079 17.5792C24.9084 17.0822 24.5059 16.6788 24.0089 16.6782C23.5118 16.6777 23.1084 17.0802 23.1079 17.5772L23.1018 23.0214L17.8852 26.4301C17.4691 26.702 17.3522 27.2598 17.6241 27.6759C17.896 28.092 18.4537 28.2089 18.8698 27.937L23.986 24.5938L29.1022 27.937C29.5183 28.2089 30.0761 28.092 30.348 27.6759C30.6199 27.2598 30.503 26.7021 30.0869 26.4302L24.9017 23.0419L24.9079 17.5792ZM24.9078 27.5C24.9078 27.0029 24.5049 26.6 24.0078 26.6C23.5108 26.6 23.1078 27.0029 23.1078 27.5V31.1098C23.1078 31.6069 23.5108 32.0098 24.0078 32.0098C24.5049 32.0098 24.9078 31.6069 24.9078 31.1098V27.5ZM16.5274 19.2392C16.7819 18.8122 17.3344 18.6724 17.7613 18.9269L20.8624 20.7752C21.2894 21.0297 21.4292 21.5822 21.1748 22.0091C20.9203 22.4361 20.3678 22.5759 19.9409 22.3214L16.8398 20.4731C16.4128 20.2186 16.273 19.6662 16.5274 19.2392ZM30.0402 18.7269C30.4672 18.4724 31.0196 18.6122 31.2741 19.0392C31.5286 19.4662 31.3888 20.0186 30.9618 20.2731L27.8607 22.1214C27.4337 22.3759 26.8813 22.2361 26.6268 21.8091C26.3723 21.3822 26.5121 20.8297 26.9391 20.5752L30.0402 18.7269Z" fill="#0077FA"/>
</svg>
